<?xml version="1.0" encoding="UTF-8"?>
<svg xmlns="http://www.w3.org/2000/svg" width="1500" height="900" viewBox="0 0 1500 900">
  <defs>
    <marker id="arrow" markerWidth="10" markerHeight="10" refX="9" refY="5" orient="auto" markerUnits="strokeWidth">
      <path d="M 0 0 L 10 5 L 0 10 z" fill="#334155" />
    </marker>
  </defs>
  <rect x="0" y="0" width="1500" height="900" fill="#ffffff" />
  <rect x="0" y="0" width="1500" height="70" fill="#0f172a" />
  <text x="32" y="45" font-family="Arial, Helvetica, sans-serif" font-size="26" fill="#ffffff">DSC Component Diagram</text>

  <rect x="40" y="110" width="680" height="700" rx="16" fill="#e0f2fe" stroke="#0ea5e9" stroke-width="2" />
  <text x="70" y="145" font-family="Arial, Helvetica, sans-serif" font-size="18" fill="#0f172a">Frontend (React SPA)</text>

  <rect x="80" y="180" width="300" height="220" rx="10" fill="#ffffff" stroke="#94a3b8" />
  <text x="100" y="210" font-family="Arial, Helvetica, sans-serif" font-size="13" fill="#0f172a">Pages</text>
  <text x="100" y="230" font-family="Arial, Helvetica, sans-serif" font-size="12" fill="#0f172a">Home, Activity, Project, Admin</text>

  <rect x="400" y="180" width="280" height="220" rx="10" fill="#ffffff" stroke="#94a3b8" />
  <text x="420" y="210" font-family="Arial, Helvetica, sans-serif" font-size="13" fill="#0f172a">Services</text>
  <text x="420" y="230" font-family="Arial, Helvetica, sans-serif" font-size="12" fill="#0f172a">ProjectService, WorkItemService</text>

  <rect x="80" y="430" width="600" height="260" rx="10" fill="#ffffff" stroke="#94a3b8" />
  <text x="100" y="460" font-family="Arial, Helvetica, sans-serif" font-size="13" fill="#0f172a">UI Components</text>
  <text x="100" y="480" font-family="Arial, Helvetica, sans-serif" font-size="12" fill="#0f172a">BC Design System, Header, Forms, Tables</text>

  <rect x="780" y="110" width="680" height="700" rx="16" fill="#fef9c3" stroke="#eab308" stroke-width="2" />
  <text x="810" y="145" font-family="Arial, Helvetica, sans-serif" font-size="18" fill="#0f172a">Backend API (.NET 10)</text>

  <rect x="820" y="180" width="280" height="220" rx="10" fill="#ffffff" stroke="#94a3b8" />
  <text x="840" y="210" font-family="Arial, Helvetica, sans-serif" font-size="13" fill="#0f172a">Public Controllers</text>
  <text x="840" y="230" font-family="Arial, Helvetica, sans-serif" font-size="12" fill="#0f172a">ProjectsController, ItemsController</text>

  <rect x="1120" y="180" width="300" height="220" rx="10" fill="#ffffff" stroke="#94a3b8" />
  <text x="1140" y="210" font-family="Arial, Helvetica, sans-serif" font-size="13" fill="#0f172a">Admin Controllers</text>
  <text x="1140" y="230" font-family="Arial, Helvetica, sans-serif" font-size="12" fill="#0f172a">Users, Projects, Catalog, Seed</text>

  <rect x="820" y="430" width="600" height="260" rx="10" fill="#ffffff" stroke="#94a3b8" />
  <text x="840" y="460" font-family="Arial, Helvetica, sans-serif" font-size="13" fill="#0f172a">Security + Data Services</text>
  <text x="840" y="480" font-family="Arial, Helvetica, sans-serif" font-size="12" fill="#0f172a">AdminTokenAuthHandler, DbContext, DTOs</text>

  <rect x="820" y="720" width="600" height="90" rx="10" fill="#ffffff" stroke="#94a3b8" />
  <text x="840" y="750" font-family="Arial, Helvetica, sans-serif" font-size="12" fill="#0f172a">MariaDB : dsc_dev</text>

  <line x1="380" y1="290" x2="400" y2="290" stroke="#334155" stroke-width="2" marker-end="url(#arrow)" />
  <text x="300" y="280" font-family="Arial, Helvetica, sans-serif" font-size="11" fill="#0f172a">uses</text>

  <line x1="680" y1="330" x2="820" y2="330" stroke="#334155" stroke-width="2" marker-end="url(#arrow)" />
  <text x="700" y="320" font-family="Arial, Helvetica, sans-serif" font-size="11" fill="#0f172a">HTTP</text>

  <line x1="1120" y1="520" x2="1120" y2="720" stroke="#334155" stroke-width="2" marker-end="url(#arrow)" />
  <text x="1135" y="640" font-family="Arial, Helvetica, sans-serif" font-size="11" fill="#0f172a">queries</text>
</svg>
