<?xml version="1.0" encoding="UTF-8"?>
<svg xmlns="http://www.w3.org/2000/svg" width="1500" height="900" viewBox="0 0 1500 900">
  <defs>
    <marker id="arrow" markerWidth="10" markerHeight="10" refX="9" refY="5" orient="auto" markerUnits="strokeWidth">
      <path d="M 0 0 L 10 5 L 0 10 z" fill="#334155" />
    </marker>
  </defs>
  <rect x="0" y="0" width="1500" height="900" fill="#ffffff" />
  <rect x="0" y="0" width="1500" height="70" fill="#0f172a" />
  <text x="32" y="45" font-family="Arial, Helvetica, sans-serif" font-size="26" fill="#ffffff">DSC Deployment Architecture</text>

  <rect x="40" y="110" width="680" height="700" rx="16" fill="#e0f2fe" stroke="#0ea5e9" stroke-width="2" />
  <text x="70" y="145" font-family="Arial, Helvetica, sans-serif" font-size="18" fill="#0f172a">Development (macOS)</text>

  <rect x="80" y="180" width="280" height="200" rx="10" fill="#ffffff" stroke="#94a3b8" />
  <text x="100" y="210" font-family="Arial, Helvetica, sans-serif" font-size="13" fill="#0f172a">Frontend : Vite + React</text>
  <text x="100" y="235" font-family="Arial, Helvetica, sans-serif" font-size="12" fill="#0f172a">http://localhost:5173</text>

  <rect x="380" y="180" width="280" height="200" rx="10" fill="#ffffff" stroke="#94a3b8" />
  <text x="400" y="210" font-family="Arial, Helvetica, sans-serif" font-size="13" fill="#0f172a">Backend : ASP.NET Core</text>
  <text x="400" y="235" font-family="Arial, Helvetica, sans-serif" font-size="12" fill="#0f172a">http://localhost:5005</text>

  <rect x="230" y="430" width="280" height="200" rx="10" fill="#ffffff" stroke="#94a3b8" />
  <text x="250" y="460" font-family="Arial, Helvetica, sans-serif" font-size="13" fill="#0f172a">Database : MariaDB 10.11</text>
  <text x="250" y="485" font-family="Arial, Helvetica, sans-serif" font-size="12" fill="#0f172a">dsc_dev @ localhost:3306</text>

  <line x1="360" y1="280" x2="380" y2="280" stroke="#334155" stroke-width="2" marker-end="url(#arrow)" />
  <line x1="520" y1="380" x2="370" y2="430" stroke="#334155" stroke-width="2" marker-end="url(#arrow)" />

  <rect x="780" y="110" width="680" height="700" rx="16" fill="#dcfce7" stroke="#16a34a" stroke-width="2" />
  <text x="810" y="145" font-family="Arial, Helvetica, sans-serif" font-size="18" fill="#0f172a">Production (Future)</text>

  <rect x="820" y="180" width="280" height="200" rx="10" fill="#ffffff" stroke="#94a3b8" />
  <text x="840" y="210" font-family="Arial, Helvetica, sans-serif" font-size="13" fill="#0f172a">Web Tier</text>
  <text x="840" y="235" font-family="Arial, Helvetica, sans-serif" font-size="12" fill="#0f172a">NGINX + Static Assets</text>

  <rect x="1140" y="180" width="280" height="200" rx="10" fill="#ffffff" stroke="#94a3b8" />
  <text x="1160" y="210" font-family="Arial, Helvetica, sans-serif" font-size="13" fill="#0f172a">App Tier</text>
  <text x="1160" y="235" font-family="Arial, Helvetica, sans-serif" font-size="12" fill="#0f172a">ASP.NET Core + EF Core</text>

  <rect x="980" y="430" width="280" height="200" rx="10" fill="#ffffff" stroke="#94a3b8" />
  <text x="1000" y="460" font-family="Arial, Helvetica, sans-serif" font-size="13" fill="#0f172a">Database Tier</text>
  <text x="1000" y="485" font-family="Arial, Helvetica, sans-serif" font-size="12" fill="#0f172a">MariaDB / MySQL</text>

  <rect x="1140" y="430" width="280" height="200" rx="10" fill="#ffffff" stroke="#94a3b8" />
  <text x="1160" y="460" font-family="Arial, Helvetica, sans-serif" font-size="13" fill="#0f172a">Identity Provider</text>
  <text x="1160" y="485" font-family="Arial, Helvetica, sans-serif" font-size="12" fill="#0f172a">Keycloak / OIDC</text>

  <line x1="1100" y1="280" x2="1140" y2="280" stroke="#334155" stroke-width="2" marker-end="url(#arrow)" />
  <line x1="1280" y1="380" x2="1120" y2="430" stroke="#334155" stroke-width="2" marker-end="url(#arrow)" />
  <line x1="1280" y1="380" x2="1280" y2="430" stroke="#334155" stroke-width="2" marker-end="url(#arrow)" />
</svg>
