<?xml version="1.0" encoding="UTF-8"?>
<svg xmlns="http://www.w3.org/2000/svg" width="1500" height="900" viewBox="0 0 1500 900">
  <defs>
    <marker id="arrow" markerWidth="10" markerHeight="10" refX="9" refY="5" orient="auto" markerUnits="strokeWidth">
      <path d="M 0 0 L 10 5 L 0 10 z" fill="#334155" />
    </marker>
  </defs>
  <rect x="0" y="0" width="1500" height="900" fill="#ffffff" />
  <rect x="0" y="0" width="1500" height="70" fill="#0f172a" />
  <text x="32" y="45" font-family="Arial, Helvetica, sans-serif" font-size="26" fill="#ffffff">Admin Seed Test Data Sequence</text>

  <text x="90" y="120" font-family="Arial, Helvetica, sans-serif" font-size="12" fill="#0f172a">Admin</text>
  <text x="260" y="120" font-family="Arial, Helvetica, sans-serif" font-size="12" fill="#0f172a">Browser</text>
  <text x="440" y="120" font-family="Arial, Helvetica, sans-serif" font-size="12" fill="#0f172a">Auth Handler</text>
  <text x="640" y="120" font-family="Arial, Helvetica, sans-serif" font-size="12" fill="#0f172a">AdminSeedController</text>
  <text x="900" y="120" font-family="Arial, Helvetica, sans-serif" font-size="12" fill="#0f172a">TestDataSeeder</text>
  <text x="1140" y="120" font-family="Arial, Helvetica, sans-serif" font-size="12" fill="#0f172a">DbContext</text>
  <text x="1320" y="120" font-family="Arial, Helvetica, sans-serif" font-size="12" fill="#0f172a">MariaDB</text>

  <line x1="100" y1="140" x2="100" y2="820" stroke="#94a3b8" stroke-width="2" />
  <line x1="280" y1="140" x2="280" y2="820" stroke="#94a3b8" stroke-width="2" />
  <line x1="480" y1="140" x2="480" y2="820" stroke="#94a3b8" stroke-width="2" />
  <line x1="700" y1="140" x2="700" y2="820" stroke="#94a3b8" stroke-width="2" />
  <line x1="960" y1="140" x2="960" y2="820" stroke="#94a3b8" stroke-width="2" />
  <line x1="1180" y1="140" x2="1180" y2="820" stroke="#94a3b8" stroke-width="2" />
  <line x1="1360" y1="140" x2="1360" y2="820" stroke="#94a3b8" stroke-width="2" />

  <line x1="100" y1="180" x2="280" y2="180" stroke="#334155" stroke-width="2" marker-end="url(#arrow)" />
  <text x="120" y="170" font-family="Arial, Helvetica, sans-serif" font-size="11" fill="#0f172a">POST /api/admin/seed/test-data</text>

  <line x1="280" y1="230" x2="480" y2="230" stroke="#334155" stroke-width="2" marker-end="url(#arrow)" />
  <text x="300" y="220" font-family="Arial, Helvetica, sans-serif" font-size="11" fill="#0f172a">X-Admin-Token or dev bypass</text>

  <line x1="480" y1="280" x2="700" y2="280" stroke="#334155" stroke-width="2" marker-end="url(#arrow)" />
  <text x="500" y="270" font-family="Arial, Helvetica, sans-serif" font-size="11" fill="#0f172a">Authorize request</text>

  <line x1="700" y1="330" x2="960" y2="330" stroke="#334155" stroke-width="2" marker-end="url(#arrow)" />
  <text x="720" y="320" font-family="Arial, Helvetica, sans-serif" font-size="11" fill="#0f172a">SeedAsync()</text>

  <line x1="960" y1="380" x2="1180" y2="380" stroke="#334155" stroke-width="2" marker-end="url(#arrow)" />
  <text x="980" y="370" font-family="Arial, Helvetica, sans-serif" font-size="11" fill="#0f172a">Begin transaction</text>

  <line x1="1180" y1="430" x2="1360" y2="430" stroke="#334155" stroke-width="2" marker-end="url(#arrow)" />
  <text x="1200" y="420" font-family="Arial, Helvetica, sans-serif" font-size="11" fill="#0f172a">Select / Insert / Update</text>

  <line x1="1180" y1="520" x2="1360" y2="520" stroke="#334155" stroke-width="2" marker-end="url(#arrow)" />
  <text x="1200" y="510" font-family="Arial, Helvetica, sans-serif" font-size="11" fill="#0f172a">Commit</text>

  <line x1="960" y1="600" x2="700" y2="600" stroke="#334155" stroke-width="2" marker-end="url(#arrow)" />
  <text x="720" y="590" font-family="Arial, Helvetica, sans-serif" font-size="11" fill="#0f172a">TestSeedResult</text>

  <line x1="700" y1="660" x2="280" y2="660" stroke="#334155" stroke-width="2" marker-end="url(#arrow)" />
  <text x="300" y="650" font-family="Arial, Helvetica, sans-serif" font-size="11" fill="#0f172a">200 OK + counts</text>

  <line x1="280" y1="720" x2="100" y2="720" stroke="#334155" stroke-width="2" marker-end="url(#arrow)" />
  <text x="120" y="710" font-family="Arial, Helvetica, sans-serif" font-size="11" fill="#0f172a">Seed completed</text>
</svg>
