<?xml version="1.0" encoding="UTF-8"?>
<svg xmlns="http://www.w3.org/2000/svg" width="1500" height="900" viewBox="0 0 1500 900">
  <defs>
    <marker id="arrow" markerWidth="10" markerHeight="10" refX="9" refY="5" orient="auto" markerUnits="strokeWidth">
      <path d="M 0 0 L 10 5 L 0 10 z" fill="#334155" />
    </marker>
  </defs>
  <rect x="0" y="0" width="1500" height="900" fill="#ffffff" />
  <rect x="0" y="0" width="1500" height="70" fill="#0f172a" />
  <text x="32" y="45" font-family="Arial, Helvetica, sans-serif" font-size="26" fill="#ffffff">Time Entry Creation Sequence</text>

  <text x="90" y="120" font-family="Arial, Helvetica, sans-serif" font-size="12" fill="#0f172a">User</text>
  <text x="260" y="120" font-family="Arial, Helvetica, sans-serif" font-size="12" fill="#0f172a">React SPA</text>
  <text x="460" y="120" font-family="Arial, Helvetica, sans-serif" font-size="12" fill="#0f172a">Activity Page</text>
  <text x="680" y="120" font-family="Arial, Helvetica, sans-serif" font-size="12" fill="#0f172a">WorkItemService</text>
  <text x="920" y="120" font-family="Arial, Helvetica, sans-serif" font-size="12" fill="#0f172a">ItemsController</text>
  <text x="1120" y="120" font-family="Arial, Helvetica, sans-serif" font-size="12" fill="#0f172a">DbContext</text>
  <text x="1320" y="120" font-family="Arial, Helvetica, sans-serif" font-size="12" fill="#0f172a">MariaDB</text>

  <line x1="100" y1="140" x2="100" y2="820" stroke="#94a3b8" stroke-width="2" />
  <line x1="280" y1="140" x2="280" y2="820" stroke="#94a3b8" stroke-width="2" />
  <line x1="500" y1="140" x2="500" y2="820" stroke="#94a3b8" stroke-width="2" />
  <line x1="740" y1="140" x2="740" y2="820" stroke="#94a3b8" stroke-width="2" />
  <line x1="980" y1="140" x2="980" y2="820" stroke="#94a3b8" stroke-width="2" />
  <line x1="1160" y1="140" x2="1160" y2="820" stroke="#94a3b8" stroke-width="2" />
  <line x1="1360" y1="140" x2="1360" y2="820" stroke="#94a3b8" stroke-width="2" />

  <line x1="100" y1="190" x2="280" y2="190" stroke="#334155" stroke-width="2" marker-end="url(#arrow)" />
  <text x="120" y="180" font-family="Arial, Helvetica, sans-serif" font-size="11" fill="#0f172a">Navigate to /activity</text>

  <line x1="280" y1="240" x2="500" y2="240" stroke="#334155" stroke-width="2" marker-end="url(#arrow)" />
  <text x="300" y="230" font-family="Arial, Helvetica, sans-serif" font-size="11" fill="#0f172a">Render Activity page</text>

  <line x1="500" y1="290" x2="740" y2="290" stroke="#334155" stroke-width="2" marker-end="url(#arrow)" />
  <text x="520" y="280" font-family="Arial, Helvetica, sans-serif" font-size="11" fill="#0f172a">getProjects()</text>

  <line x1="740" y1="340" x2="980" y2="340" stroke="#334155" stroke-width="2" marker-end="url(#arrow)" />
  <text x="760" y="330" font-family="Arial, Helvetica, sans-serif" font-size="11" fill="#0f172a">GET /api/projects</text>

  <line x1="980" y1="390" x2="1160" y2="390" stroke="#334155" stroke-width="2" marker-end="url(#arrow)" />
  <text x="1000" y="380" font-family="Arial, Helvetica, sans-serif" font-size="11" fill="#0f172a">Query projects</text>

  <line x1="1160" y1="430" x2="1360" y2="430" stroke="#334155" stroke-width="2" marker-end="url(#arrow)" />
  <text x="1180" y="420" font-family="Arial, Helvetica, sans-serif" font-size="11" fill="#0f172a">SELECT projects</text>

  <line x1="500" y1="520" x2="740" y2="520" stroke="#334155" stroke-width="2" marker-end="url(#arrow)" />
  <text x="520" y="510" font-family="Arial, Helvetica, sans-serif" font-size="11" fill="#0f172a">createWorkItemWithLegacy()</text>

  <line x1="740" y1="570" x2="980" y2="570" stroke="#334155" stroke-width="2" marker-end="url(#arrow)" />
  <text x="760" y="560" font-family="Arial, Helvetica, sans-serif" font-size="11" fill="#0f172a">POST /api/items</text>

  <line x1="980" y1="620" x2="1160" y2="620" stroke="#334155" stroke-width="2" marker-end="url(#arrow)" />
  <text x="1000" y="610" font-family="Arial, Helvetica, sans-serif" font-size="11" fill="#0f172a">Validate + Save</text>

  <line x1="1160" y1="660" x2="1360" y2="660" stroke="#334155" stroke-width="2" marker-end="url(#arrow)" />
  <text x="1180" y="650" font-family="Arial, Helvetica, sans-serif" font-size="11" fill="#0f172a">INSERT work_items</text>

  <line x1="980" y1="730" x2="500" y2="730" stroke="#334155" stroke-width="2" marker-end="url(#arrow)" />
  <text x="520" y="720" font-family="Arial, Helvetica, sans-serif" font-size="11" fill="#0f172a">201 Created + refresh list</text>
</svg>
